# xmcd CD database file
#
# Track frame offsets:
#	150
#	17654
#	34268
#	55880
#	62558
#	82233
#	94941
#	110403
#	127570
#	145045
#	160841
#	177148
#
# Disc length: 2422 seconds
#
# Revision: 8
# Processed by: cddbd v1.5.2PL0 Copyright (c) Steve Scherf et al.
# Submitted via: CdAid (MTCDDB.DLL V2003.12.21)
#
DISCID=9509740c
DTITLE=Wolfgang Petry - Einmal Mit Dir
DYEAR=0
DGENRE=Pop
TTITLE0=Auf Den Mond Schießen
TTITLE1=Nur Ein Kleines Stück Papier
TTITLE2=Einmal Mit Dir
TTITLE3=Ich Schlief
TTITLE4=Leben Lohnt Sich
TTITLE5=Du Und Ich
TTITLE6=Früher
TTITLE7=100 Stunden
TTITLE8=Herzlichen Glückwunsch
TTITLE9=Schade
TTITLE10=Wenn Ich Ehrlich Bin
TTITLE11=Ich Schlief
EXTD=YEAR: 0  ID3G:  13
EXTT0=
EXTT1=
EXTT2=
EXTT3=
EXTT4=
EXTT5=
EXTT6=
EXTT7=
EXTT8=
EXTT9=
EXTT10=
EXTT11=
PLAYORDER=
